<?xml version="1.0" encoding="utf-8"?>
<!-- Generator: Adobe Illustrator 23.0.0, SVG Export Plug-In . SVG Version: 6.00 Build 0)  -->
<svg version="1.1" id="Layer_1" xmlns="http://www.w3.org/2000/svg" xmlns:xlink="http://www.w3.org/1999/xlink" x="0px" y="0px"
	 viewBox="0 0 169 44" style="enable-background:new 0 0 169 44;" xml:space="preserve">
<style type="text/css">
	.st0{fill:#FFFFFF;}
	.st1{fill:url(#Union_10_1_);}
	.st2{fill:url(#Path_544_1_);}
	.st3{fill-rule:evenodd;clip-rule:evenodd;fill:#FFFFFF;}
	.st4{fill:url(#Union_12_1_);}
	.st5{fill:url(#Union_11_1_);}
	.st6{fill:url(#Union_8_1_);}
</style>
<g id="Group_10">
	<g id="Group_7">
		<path id="Path_554" class="st0" d="M47.5,41.3V37h0.4l3,3.8h-0.2V37h0.5v4.3h-0.4l-3-3.8H48v3.8H47.5z M54.6,39.1h2.3v0.4l-2.3,0
			L54.6,39.1z M54.6,41.3h-0.5l0-4.3h3v0.4h-2.5L54.6,41.3z M60.6,41.3l0-3.9h-1.5V37h3.5v0.4h-1.5l0,3.9L60.6,41.3z M68.7,39.1H71
			v0.4l-2.3,0L68.7,39.1z M68.7,41.3h-0.5l0-4.3h3v0.4h-2.5L68.7,41.3z M75.6,41.3c-0.6,0-1-0.2-1.3-0.5c-0.3-0.3-0.5-0.8-0.5-1.4
			V37h0.5v2.5c0,0.5,0.1,0.9,0.3,1.1s0.6,0.4,1,0.4c0.4,0,0.8-0.1,1-0.4s0.3-0.6,0.3-1.1V37h0.4v2.5c0,0.6-0.2,1.1-0.5,1.4
			C76.6,41.2,76.1,41.3,75.6,41.3z M81.1,41.3l0-3.9h-1.5V37h3.5v0.4h-1.5l0,3.9L81.1,41.3z M87.2,41.3c-0.6,0-1-0.2-1.3-0.5
			c-0.3-0.3-0.5-0.8-0.5-1.4V37h0.5v2.5c0,0.5,0.1,0.9,0.3,1.1s0.6,0.4,1,0.4c0.4,0,0.8-0.1,1-0.4s0.3-0.6,0.3-1.1V37h0.4v2.5
			c0,0.6-0.2,1.1-0.5,1.4C88.1,41.2,87.7,41.3,87.2,41.3L87.2,41.3z M92,41.3V37h1.6c0.3,0,0.6,0.1,0.9,0.2c0.2,0.1,0.5,0.3,0.6,0.5
			c0.1,0.2,0.2,0.5,0.2,0.8c0,0.3-0.1,0.6-0.2,0.8c-0.1,0.2-0.4,0.4-0.6,0.5c-0.3,0.1-0.6,0.2-0.9,0.2h-1.4l0.2-0.2v1.6H92z
			 M94.9,41.3l-1.1-1.6h0.5l1.1,1.6H94.9z M92.4,39.7l-0.2-0.2h1.4c0.4,0,0.8-0.1,1-0.3c0.2-0.2,0.3-0.5,0.3-0.8
			c0-0.3-0.1-0.6-0.3-0.8s-0.6-0.3-1-0.3h-1.4l0.2-0.2V39.7z M103.2,41.3c-0.3,0-0.6-0.1-0.9-0.2c-0.3-0.1-0.5-0.3-0.7-0.5
			c-0.2-0.2-0.4-0.4-0.5-0.7c-0.1-0.3-0.2-0.6-0.2-0.9c0-0.3,0.1-0.6,0.2-0.9c0.1-0.3,0.3-0.5,0.5-0.7c0.2-0.2,0.5-0.4,0.7-0.5
			c0.3-0.1,0.6-0.2,0.9-0.2c0.3,0,0.6,0.1,0.9,0.2c0.3,0.1,0.5,0.3,0.7,0.5l-0.3,0.3c-0.2-0.2-0.4-0.3-0.6-0.4
			c-0.2-0.1-0.5-0.1-0.7-0.1c-0.2,0-0.5,0-0.7,0.1c-0.2,0.1-0.4,0.2-0.6,0.4c-0.2,0.2-0.3,0.4-0.4,0.6c-0.1,0.2-0.1,0.5-0.1,0.7
			c0,0.2,0,0.5,0.1,0.7c0.1,0.2,0.2,0.4,0.4,0.6c0.2,0.2,0.4,0.3,0.6,0.4c0.2,0.1,0.5,0.1,0.7,0.1c0.2,0,0.5,0,0.7-0.1
			c0.2-0.1,0.4-0.2,0.6-0.4l0.3,0.3c-0.2,0.2-0.4,0.4-0.7,0.5C103.8,41.3,103.5,41.3,103.2,41.3z M107.5,41.3V37h1.6
			c0.3,0,0.6,0.1,0.9,0.2c0.2,0.1,0.5,0.3,0.6,0.5c0.1,0.2,0.2,0.5,0.2,0.8c0,0.3-0.1,0.6-0.2,0.8c-0.1,0.2-0.4,0.4-0.6,0.5
			c-0.3,0.1-0.6,0.2-0.9,0.2h-1.4l0.2-0.2v1.6H107.5z M110.4,41.3l-1.1-1.6h0.5l1.1,1.6H110.4z M107.9,39.7l-0.2-0.2h1.4
			c0.4,0,0.8-0.1,1-0.3c0.2-0.2,0.3-0.5,0.3-0.8c0-0.3-0.1-0.6-0.3-0.8c-0.2-0.2-0.6-0.3-1-0.3h-1.4l0.2-0.2L107.9,39.7z
			 M114.6,41.3v-1.6l0.1,0.3l-1.8-3h0.5l1.6,2.6h-0.3l1.6-2.6h0.5l-1.8,3l0.1-0.3v1.6H114.6z M119,41.3V37h1.6
			c0.3,0,0.6,0.1,0.9,0.2c0.2,0.1,0.5,0.3,0.6,0.5c0.1,0.2,0.2,0.5,0.2,0.8c0,0.3-0.1,0.6-0.2,0.8c-0.1,0.2-0.4,0.4-0.6,0.5
			c-0.3,0.1-0.6,0.2-0.9,0.2h-1.4l0.2-0.2v1.6H119z M119.5,39.7l-0.2-0.2h1.4c0.4,0,0.8-0.1,1-0.3c0.2-0.2,0.3-0.5,0.3-0.8
			c0-0.3-0.1-0.6-0.3-0.8s-0.6-0.3-1-0.3h-1.4l0.2-0.2L119.5,39.7z M125.7,41.3l0-3.9h-1.5V37h3.5v0.4h-1.5l0,3.9L125.7,41.3z
			 M131.9,41.3c-0.3,0-0.6-0.1-0.9-0.2c-0.3-0.1-0.5-0.3-0.7-0.5c-0.2-0.2-0.4-0.4-0.5-0.7c-0.1-0.3-0.2-0.6-0.2-0.9
			c0-0.3,0.1-0.6,0.2-0.9c0.1-0.3,0.3-0.5,0.5-0.7c0.2-0.2,0.5-0.4,0.7-0.5c0.3-0.1,0.6-0.2,0.9-0.2c0.3,0,0.6,0.1,0.9,0.2
			c0.3,0.1,0.5,0.3,0.7,0.5c0.2,0.2,0.4,0.4,0.5,0.7c0.1,0.3,0.2,0.6,0.2,0.9c0,0.3-0.1,0.6-0.2,0.9c-0.1,0.3-0.3,0.5-0.5,0.7
			c-0.2,0.2-0.5,0.4-0.7,0.5C132.5,41.3,132.2,41.3,131.9,41.3L131.9,41.3z M131.9,40.9c0.2,0,0.5,0,0.7-0.1
			c0.2-0.1,0.4-0.2,0.6-0.4c0.2-0.2,0.3-0.4,0.4-0.6c0.1-0.2,0.1-0.5,0.1-0.7c0-0.2,0-0.5-0.1-0.7c-0.1-0.2-0.2-0.4-0.4-0.6
			c-0.2-0.2-0.4-0.3-0.6-0.4c-0.2-0.1-0.5-0.1-0.7-0.1c-0.2,0-0.5,0-0.7,0.1c-0.2,0.1-0.4,0.2-0.6,0.4c-0.2,0.2-0.3,0.4-0.4,0.6
			c-0.1,0.2-0.1,0.5-0.1,0.7c0,0.2,0,0.5,0.1,0.7c0.1,0.2,0.2,0.4,0.4,0.6c0.2,0.2,0.4,0.3,0.6,0.4
			C131.4,40.9,131.7,40.9,131.9,40.9L131.9,40.9z M141.3,41.3c-0.3,0-0.6-0.1-0.9-0.2c-0.3-0.1-0.5-0.2-0.7-0.4l0.2-0.4
			c0.2,0.2,0.4,0.3,0.6,0.4c0.3,0.1,0.5,0.2,0.8,0.2c0.2,0,0.5,0,0.7-0.1c0.2-0.1,0.3-0.1,0.4-0.3c0.1-0.1,0.1-0.2,0.1-0.4
			c0-0.1,0-0.3-0.1-0.4c-0.1-0.1-0.2-0.2-0.4-0.2c-0.2-0.1-0.3-0.1-0.5-0.2c-0.2,0-0.4-0.1-0.6-0.1c-0.2,0-0.4-0.1-0.5-0.2
			c-0.2-0.1-0.3-0.2-0.4-0.3c-0.1-0.2-0.2-0.4-0.1-0.6c0-0.2,0.1-0.4,0.2-0.6c0.1-0.2,0.3-0.3,0.5-0.4c0.2-0.1,0.5-0.2,0.9-0.2
			c0.2,0,0.5,0,0.7,0.1c0.2,0.1,0.4,0.2,0.6,0.3l-0.2,0.4c-0.2-0.1-0.4-0.2-0.6-0.3c-0.2-0.1-0.4-0.1-0.6-0.1c-0.2,0-0.4,0-0.6,0.1
			c-0.1,0.1-0.3,0.2-0.4,0.3c-0.1,0.1-0.1,0.3-0.1,0.4c0,0.1,0,0.3,0.1,0.4c0.1,0.1,0.2,0.2,0.4,0.2c0.2,0.1,0.3,0.1,0.5,0.2
			c0.2,0,0.4,0.1,0.6,0.1c0.2,0.1,0.4,0.1,0.5,0.2c0.2,0.1,0.3,0.2,0.4,0.3c0.1,0.2,0.2,0.4,0.1,0.5c0,0.2-0.1,0.4-0.2,0.6
			c-0.1,0.2-0.3,0.3-0.5,0.4C142,41.3,141.7,41.3,141.3,41.3z M146.4,41.3l0-3.9h-1.5V37h3.5v0.4h-1.5l0,3.9L146.4,41.3z
			 M152.6,41.3c-0.3,0-0.6-0.1-0.9-0.2c-0.3-0.1-0.5-0.3-0.7-0.5c-0.2-0.2-0.4-0.4-0.5-0.7c-0.1-0.3-0.2-0.6-0.2-0.9
			c0-0.3,0.1-0.6,0.2-0.9c0.1-0.3,0.3-0.5,0.5-0.7c0.2-0.2,0.5-0.4,0.7-0.5c0.3-0.1,0.6-0.2,0.9-0.2c0.3,0,0.6,0.1,0.9,0.2
			c0.3,0.1,0.5,0.3,0.7,0.5c0.2,0.2,0.4,0.4,0.5,0.7c0.1,0.3,0.2,0.6,0.2,0.9c0,0.3-0.1,0.6-0.2,0.9c-0.1,0.3-0.3,0.5-0.5,0.7
			c-0.2,0.2-0.5,0.4-0.7,0.5C153.2,41.3,152.9,41.3,152.6,41.3L152.6,41.3z M152.6,40.9c0.2,0,0.5,0,0.7-0.1
			c0.2-0.1,0.4-0.2,0.6-0.4c0.2-0.2,0.3-0.4,0.4-0.6c0.1-0.2,0.1-0.5,0.1-0.7c0-0.2,0-0.5-0.1-0.7c-0.1-0.2-0.2-0.4-0.4-0.6
			c-0.2-0.2-0.4-0.3-0.6-0.4c-0.2-0.1-0.5-0.1-0.7-0.1c-0.2,0-0.5,0-0.7,0.1c-0.2,0.1-0.4,0.2-0.6,0.4c-0.2,0.2-0.3,0.4-0.4,0.6
			c-0.1,0.2-0.1,0.5-0.1,0.7c0,0.2,0,0.5,0.1,0.7c0.1,0.2,0.2,0.4,0.4,0.6c0.2,0.2,0.4,0.3,0.6,0.4
			C152.1,40.9,152.3,40.9,152.6,40.9L152.6,40.9z M159.4,41.3c-0.3,0-0.6-0.1-0.9-0.2c-0.3-0.1-0.5-0.3-0.7-0.5
			c-0.2-0.2-0.4-0.4-0.5-0.7c-0.1-0.3-0.2-0.6-0.2-0.9c0-0.3,0.1-0.6,0.2-0.9c0.1-0.3,0.3-0.5,0.5-0.7c0.2-0.2,0.5-0.4,0.7-0.5
			c0.3-0.1,0.6-0.2,0.9-0.2c0.3,0,0.6,0.1,0.9,0.2c0.3,0.1,0.5,0.3,0.7,0.5l-0.3,0.3c-0.2-0.2-0.4-0.3-0.6-0.4
			c-0.2-0.1-0.5-0.1-0.7-0.1c-0.2,0-0.5,0-0.7,0.1c-0.2,0.1-0.4,0.2-0.6,0.4c-0.2,0.2-0.3,0.4-0.4,0.6c-0.1,0.2-0.1,0.5-0.1,0.7
			c0,0.2,0,0.5,0.1,0.7c0.1,0.2,0.2,0.4,0.4,0.6c0.2,0.2,0.4,0.3,0.6,0.4c0.2,0.1,0.5,0.1,0.7,0.1c0.2,0,0.5,0,0.7-0.1
			c0.2-0.1,0.4-0.2,0.6-0.4l0.3,0.3c-0.2,0.2-0.4,0.4-0.7,0.5C160,41.3,159.7,41.3,159.4,41.3L159.4,41.3z M164,40.2l0-0.6l2.6-2.7
			h0.5l-1.9,2l-0.3,0.3L164,40.2z M163.6,41.3V37h0.5v4.3H163.6z M166.7,41.3l-1.9-2.2l0.3-0.3l2.1,2.5H166.7z"/>
		<path id="Path_555" class="st0" d="M57.8,23v11.8h-1.4L49.3,26v8.8h-1.7V23H49l7.1,8.8V23H57.8z M63,24.4v4.1h5.9V30H63v4.8h-1.7
			V23h8.3v1.5H63z M77.2,34.9c-1.2,0-2.2-0.3-3.2-0.8c-0.9-0.5-1.7-1.2-2.2-2.2c-0.5-0.9-0.8-1.9-0.8-3.1s0.3-2.2,0.8-3.1
			c0.5-0.9,1.3-1.7,2.2-2.2c1-0.5,2-0.8,3.2-0.8c0.9,0,1.7,0.1,2.5,0.5c0.7,0.3,1.4,0.8,2,1.4l-1.1,1.1c-0.9-0.9-2-1.4-3.3-1.4
			c-0.8,0-1.6,0.2-2.4,0.6c-0.7,0.4-1.3,0.9-1.7,1.6c-0.4,0.7-0.6,1.5-0.6,2.3c0,0.8,0.2,1.6,0.6,2.3c0.4,0.7,1,1.2,1.7,1.6
			c0.7,0.4,1.5,0.6,2.4,0.6c1.3,0,2.4-0.5,3.3-1.4l1.1,1.1c-0.5,0.6-1.2,1.1-2,1.4C78.9,34.7,78,34.9,77.2,34.9z M87.5,34.9
			c-0.9,0-1.7-0.1-2.6-0.4c-0.8-0.3-1.5-0.6-1.9-1.1l0.6-1.3c0.4,0.4,1,0.7,1.7,1c0.7,0.3,1.4,0.4,2.2,0.4c1,0,1.7-0.2,2.2-0.5
			c0.5-0.3,0.7-0.8,0.7-1.3c0-0.4-0.1-0.7-0.4-1c-0.3-0.3-0.6-0.5-1-0.6c-0.4-0.1-0.9-0.3-1.6-0.5c-0.7-0.2-1.4-0.4-2.1-0.6
			c-0.5-0.2-1-0.5-1.4-1c-0.4-0.4-0.6-1-0.6-1.8c0-0.6,0.2-1.2,0.5-1.7c0.3-0.5,0.8-0.9,1.5-1.2s1.5-0.5,2.5-0.5
			c0.7,0,1.4,0.1,2.1,0.3c0.6,0.2,1.2,0.4,1.7,0.8L91,25.2c-0.5-0.3-1-0.6-1.6-0.7c-0.5-0.2-1.1-0.2-1.7-0.2c-1,0-1.7,0.2-2.1,0.5
			s-0.7,0.8-0.7,1.3c0,0.4,0.1,0.7,0.4,1c0.3,0.3,0.6,0.5,1,0.6c0.5,0.2,1.1,0.3,1.6,0.4c0.9,0.2,1.6,0.4,2.1,0.6
			c0.5,0.2,1,0.5,1.4,1c0.4,0.4,0.6,1,0.6,1.8c0,0.6-0.2,1.2-0.5,1.7c-0.3,0.5-0.8,0.9-1.5,1.2S88.5,34.9,87.5,34.9z M103.6,23
			c1.5,0,2.7,0.4,3.6,1.1c0.9,0.7,1.3,1.7,1.3,3c0,1.3-0.4,2.3-1.3,3c-0.9,0.7-2.1,1.1-3.6,1.1h-2.9v3.6H99V23H103.6z M103.6,29.7
			c1.1,0,1.9-0.2,2.4-0.7c0.6-0.5,0.8-1.1,0.8-2c0-0.9-0.3-1.5-0.8-2c-0.6-0.5-1.4-0.7-2.4-0.7h-2.9v5.3H103.6z M116.5,34.9
			c-1.2,0-2.3-0.3-3.2-0.8c-0.9-0.5-1.7-1.3-2.3-2.2c-0.5-0.9-0.8-1.9-0.8-3.1s0.3-2.2,0.8-3.1c0.5-0.9,1.3-1.7,2.3-2.2
			c1-0.5,2-0.8,3.2-0.8c1.2,0,2.2,0.3,3.2,0.8c0.9,0.5,1.7,1.2,2.2,2.2c0.5,0.9,0.8,1.9,0.8,3.1S122.5,31,122,32
			c-0.5,0.9-1.3,1.7-2.2,2.2C118.8,34.6,117.7,34.9,116.5,34.9z M116.5,33.4c0.9,0,1.6-0.2,2.3-0.6c0.7-0.4,1.2-0.9,1.6-1.6
			c0.4-0.7,0.6-1.5,0.6-2.3c0-0.8-0.2-1.6-0.6-2.3c-0.4-0.7-1-1.2-1.6-1.6c-0.7-0.4-1.5-0.6-2.3-0.6c-0.8,0-1.6,0.2-2.4,0.6
			c-0.7,0.4-1.3,0.9-1.7,1.6c-0.4,0.7-0.6,1.5-0.6,2.3c0,0.8,0.2,1.6,0.6,2.3c0.4,0.7,1,1.2,1.7,1.6
			C114.9,33.2,115.7,33.4,116.5,33.4z M133.2,34.8l-2.5-3.6c-0.3,0-0.6,0-0.7,0H127v3.6h-1.7V23h4.6c1.5,0,2.7,0.4,3.6,1.1
			c0.9,0.7,1.3,1.7,1.3,3c0,0.9-0.2,1.7-0.7,2.3c-0.4,0.6-1.1,1.1-1.9,1.4l2.8,4H133.2z M129.9,29.7c1.1,0,1.9-0.2,2.4-0.7
			c0.6-0.5,0.8-1.1,0.8-2s-0.3-1.5-0.8-2c-0.6-0.5-1.4-0.7-2.4-0.7H127v5.3H129.9z M139.8,24.4h-4V23h9.8v1.5h-4v10.3h-1.7V24.4z
			 M154.3,31.8H148l-1.3,2.9H145l5.3-11.8h1.7l5.4,11.8h-1.8L154.3,31.8z M153.7,30.5l-2.5-5.8l-2.5,5.8L153.7,30.5z M159.1,23h1.7
			v10.3h6.4v1.5h-8.1V23z"/>
	</g>
	<g id="Group_8">
		
			<linearGradient id="Union_10_1_" gradientUnits="userSpaceOnUse" x1="-224.3749" y1="419.5368" x2="-224.325" y2="419.5251" gradientTransform="matrix(242.3247 0 0 -280.7979 54393.9531 117827.8984)">
			<stop  offset="0" style="stop-color:#2852E1"/>
			<stop  offset="1" style="stop-color:#1B6AF3"/>
		</linearGradient>
		<path id="Union_10" class="st1" d="M29.6,34.9c-0.8-0.2-1.4-1-1.3-1.8c0-0.1,0-0.1,0-0.2c0-0.1,0-0.1,0-0.2
			c0.7-2.8-2.3-3.9-4.2-4.4c-0.1,0-0.2-0.1-0.4-0.1c0,0-0.1,0-0.1,0c-0.1,0-0.2-0.1-0.2-0.1c0,0-0.1,0-0.1-0.1
			c-0.1,0-0.1-0.1-0.2-0.1c0,0-0.1,0-0.1-0.1c-0.1,0-0.1-0.1-0.2-0.1c0,0-0.1,0-0.1-0.1c-0.1-0.1-0.1-0.1-0.2-0.2c0,0,0,0-0.1-0.1
			c-0.1-0.1-0.2-0.2-0.2-0.2c0,0,0-0.1-0.1-0.1c0,0-0.1-0.1-0.1-0.1l0,0c-0.7-0.9-1-2.2-0.7-3.3c0.5-2.1,2.6-3.3,4.7-2.8
			c0,0,0,0,0,0c2.9,0.7,5.5,0.7,6.4-2.7c0.3-1.4,1.7-2.2,3.1-1.9c0.9,0.2,1.6,0.9,1.8,1.8l0,0c0,0,0,0,0,0c0,0.1,0,0.2,0.1,0.3
			c0,0,0,0,0,0c0,0.1,0,0.2,0,0.3c0,0,0,0.1,0,0.1c0,0.1,0,0.1,0,0.2c0,0,0,0.1,0,0.1c0,0.1,0,0.2-0.1,0.3c-0.1,0.3-0.2,0.5-0.3,0.7
			c-0.5,0.8-1.4,1.3-2.3,1.2c-0.2,0-0.3,0-0.5-0.1c-3.4-0.9-4.7,1.5-5.4,4.3c-0.4,1.6-1.3,5.2,1.6,5.9c1,0.2,1.5,1.2,1.3,2.1
			c0,0,0,0,0,0c0,0.1,0,0.1-0.1,0.2C31.4,34.5,30.8,35,30,35C29.9,35,29.7,35,29.6,34.9z"/>
		
			<linearGradient id="Path_544_1_" gradientUnits="userSpaceOnUse" x1="-222.0938" y1="418.7708" x2="-222.1559" y2="418.7122" gradientTransform="matrix(658.7359 23.0788 18.3485 -523.72 138662.2188 224453.8281)">
			<stop  offset="0" style="stop-color:#1875FC"/>
			<stop  offset="1" style="stop-color:#00F2FB"/>
		</linearGradient>
		<path id="Path_544" class="st2" d="M16.6,13.6C4.8,20.8-1.7,31.6,2,37.7c3.7,6,16.3,5.1,28.1-2.2c11.8-7.3,18.3-18,14.6-24.1
			S28.4,6.3,16.6,13.6z M28.5,32.9c-9.8,6.1-20.3,6.9-23.4,1.8s2.3-14,12.2-20.1c9.8-6.1,20.3-6.9,23.4-1.8
			C43.8,17.8,38.3,26.8,28.5,32.9z"/>
		<path id="Path_545" class="st3" d="M7.9,29.5c-0.4,0.9-1.5,1.3-2.4,0.8c-0.8-0.4-1.2-1.2-1-2c0-0.1,0-0.1,0-0.1
			c0.7,0,1.3,0.2,1.9,0.5C7.1,29,7.5,29.2,7.9,29.5 M18.4,25.9c-0.3,2.2,0,4.4,3,5.1c1.4,0.3,2.2,1.7,1.9,3.1
			c-0.3,1.4-1.7,2.2-3.1,1.9c-1.4-0.3-2.2-1.7-1.9-3.1c0.8-3.1-1.1-4.4-3.3-5.1C15.7,26.7,16.7,25.8,18.4,25.9z"/>
		
			<linearGradient id="Union_12_1_" gradientUnits="userSpaceOnUse" x1="-223.296" y1="418.8745" x2="-223.3538" y2="418.8862" gradientTransform="matrix(242.3492 0 0 -280.7812 54134.7734 117627.2266)">
			<stop  offset="0" style="stop-color:#2852E1"/>
			<stop  offset="1" style="stop-color:#1B6AF3"/>
		</linearGradient>
		<path id="Union_12" class="st4" d="M5.4,22c-1-0.3-1.8-1.1-1.9-2.2l0,0c0,0,0-0.1,0-0.1c0,0,0-0.1,0-0.1c0,0,0-0.1,0-0.1
			c0,0,0-0.1,0-0.1c0-0.1,0-0.1,0-0.2c0,0,0-0.1,0-0.1c0-0.1,0-0.2,0-0.2c0.1-0.6,0.5-1.1,1-1.4c0.6-0.4,1.2-0.6,1.9-0.5
			c0.1,0,0.1,0,0.2,0C6.8,17,6.9,17,7,17.1c1,0.2,1.8,0.1,2.4-0.2c0,0,0,0,0,0c0.2-0.1,0.4-0.2,0.5-0.3c0.1-0.1,0.3-0.2,0.4-0.4
			c0,0,0,0,0,0c0.1-0.1,0.2-0.2,0.3-0.3c0.1-0.1,0.1-0.2,0.2-0.3c0.2-0.3,0.4-0.6,0.5-1c0.1-0.1,0.1-0.3,0.2-0.4
			c0-0.1,0.1-0.2,0.1-0.3c0-0.1,0.1-0.2,0.1-0.3c0.1-0.3,0.2-0.7,0.3-1c0.1-0.3,0.2-0.6,0.3-1c0,0,0-0.1,0-0.1
			c0.3-1.1,0.5-2.5,0-3.5c-0.2-0.5-0.6-0.8-1.2-1.1c-0.1,0-0.1,0-0.2-0.1c-0.1,0-0.2-0.1-0.4-0.1c0,0-0.1,0-0.1,0
			c-0.1,0-0.1,0-0.2-0.1c0,0,0,0,0,0c0,0-0.1,0-0.1-0.1c-0.6-0.3-1-1-1-1.7c0,0,0,0,0-0.1c0-0.1,0-0.2,0-0.3l0,0c0,0,0-0.1,0-0.1
			c0,0,0,0,0,0c0,0,0-0.1,0-0.1c0,0,0,0,0-0.1c0-0.1,0.1-0.2,0.1-0.2c0.4-0.6,1.2-0.9,1.9-0.7c1,0.2,1.5,1.2,1.3,2.1c0,0,0,0,0,0
			c-0.7,2.9,1.7,3.7,3.5,4.2c0.2,0.1,0.5,0.1,0.7,0.2c0.1,0,0.3,0.1,0.4,0.1c0,0,0.1,0,0.1,0.1c0.1,0,0.2,0.1,0.3,0.1
			c0,0,0.1,0,0.1,0.1c0.1,0,0.1,0.1,0.2,0.1c0,0,0.1,0.1,0.1,0.1c0.1,0,0.1,0.1,0.2,0.1c0,0,0.1,0.1,0.1,0.1
			c0.1,0.1,0.1,0.1,0.2,0.2c0,0,0.1,0.1,0.1,0.1c0.1,0.1,0.1,0.1,0.2,0.2c0,0,0.1,0.1,0.1,0.1c0.1,0.1,0.1,0.1,0.2,0.2
			c0,0,0,0.1,0.1,0.1c0.1,0.1,0.1,0.2,0.2,0.3c0,0,0,0,0,0l0,0c0.4,0.8,0.5,1.7,0.3,2.6c-0.5,2.1-2.6,3.3-4.7,2.8
			c-2.4-0.6-5.4-1.1-6.4,2.7C8.3,21.2,7.2,22,6.1,22C5.8,22,5.6,22,5.4,22z M13.5,11.3C13.5,11.3,13.5,11.3,13.5,11.3L13.5,11.3
			L13.5,11.3z"/>
		
			<linearGradient id="Union_11_1_" gradientUnits="userSpaceOnUse" x1="-223.7667" y1="418.9109" x2="-223.7888" y2="418.8458" gradientTransform="matrix(280.7624 0 0 -242.3799 62853.2383 101540.0234)">
			<stop  offset="0" style="stop-color:#2852E1"/>
			<stop  offset="1" style="stop-color:#1B6AF3"/>
		</linearGradient>
		<path id="Union_11" class="st5" d="M25.1,18.3c-2.1-0.5-3.3-2.6-2.8-4.7c0,0,0,0,0,0c0.1-0.4,0.2-0.8,0.3-1.2l0,0
			c0-0.1,0-0.1,0-0.2c0,0,0,0,0-0.1c0-0.1,0-0.1,0-0.2c0,0,0-0.1,0-0.1c0,0,0-0.1,0-0.1c0,0,0-0.1,0-0.1c0,0,0-0.1,0-0.1
			c0,0,0-0.1,0-0.1c0,0,0-0.1,0-0.1c0,0,0-0.1,0-0.1c0-0.1,0-0.1,0-0.2c0,0,0,0,0-0.1c0-0.1,0-0.1,0-0.2c0,0,0,0,0-0.1
			c0-0.1,0-0.1,0-0.2c0,0,0-0.1,0-0.1c0,0,0-0.1,0-0.1c0,0,0-0.1,0-0.1c0,0,0-0.1,0-0.1c0,0,0-0.1,0-0.1c0,0,0-0.1,0-0.1
			c0,0,0-0.1,0-0.1c0,0,0-0.1,0-0.1c0,0,0-0.1,0-0.1c0-0.1,0-0.1-0.1-0.2c0,0,0,0,0,0c0-0.1-0.1-0.1-0.1-0.2c0,0,0,0,0-0.1
			c0,0,0-0.1-0.1-0.1c0,0,0,0,0-0.1c0,0,0-0.1-0.1-0.1c0,0,0,0-0.1-0.1c0,0,0-0.1-0.1-0.1c0,0,0,0-0.1-0.1c0,0-0.1-0.1-0.1-0.1
			c0,0,0,0-0.1-0.1c0,0-0.1-0.1-0.1-0.1c0,0,0,0-0.1-0.1c0,0-0.1-0.1-0.2-0.1c0,0,0,0,0,0C21.3,8,21.3,8,21.2,7.9c0,0,0,0-0.1,0
			c0,0-0.1-0.1-0.1-0.1c0,0-0.1,0-0.1-0.1c0,0-0.1-0.1-0.1-0.1c0,0-0.1,0-0.1-0.1c-0.1,0-0.1,0-0.2-0.1c0,0-0.1,0-0.1,0
			c-0.1,0-0.1,0-0.2-0.1c0,0-0.1,0-0.1,0c-0.1,0-0.1,0-0.2-0.1c0,0-0.1,0-0.1,0c-0.1,0-0.2-0.1-0.3-0.1c-0.2,0-0.3-0.1-0.5-0.2
			c-0.1-0.1-0.2-0.1-0.3-0.2c-0.9-0.6-1.3-1.7-1-2.7c0.3-1.1,1.2-1.9,2.3-1.9c0.3,0,0.5,0,0.8,0.1c0.1,0,0.2,0.1,0.3,0.1
			c1.1,0.4,1.7,1.6,1.6,2.7c0,0.1,0,0.2-0.1,0.3c0,0.1-0.1,0.2-0.1,0.3c0,0,0,0.1,0,0.1c0,0.1,0,0.1,0,0.2c0,0,0,0.1,0,0.1
			c0,0.1,0,0.1,0,0.2c0,0,0,0.1,0,0.1c0,0.1,0,0.1,0,0.2c0,0,0,0,0,0.1c0,0.1,0,0.2,0,0.3c0,0,0,0,0,0.1c0,0.1,0,0.1,0,0.2
			c0,0,0,0.1,0,0.1c0,0.1,0,0.1,0,0.2c0,0,0,0.1,0,0.1c0,0.1,0,0.1,0,0.2c0,0,0,0.1,0,0.1c0,0.1,0,0.1,0.1,0.2c0,0,0,0,0,0
			c0,0.1,0.1,0.1,0.1,0.2c0,0,0,0,0,0.1c0,0,0,0.1,0.1,0.1c0,0,0,0,0,0.1c0,0,0,0.1,0.1,0.1c0,0,0,0,0,0.1c0,0,0.1,0.1,0.1,0.1
			c0,0,0,0,0,0.1c0,0.1,0.1,0.1,0.1,0.2c0,0,0,0,0,0c0,0,0.1,0.1,0.1,0.1c0,0,0,0,0.1,0c0,0,0.1,0.1,0.1,0.1c0,0,0,0,0.1,0.1
			c0,0,0.1,0.1,0.1,0.1c0,0,0,0,0.1,0c0,0,0.1,0.1,0.1,0.1c0,0,0,0,0,0c0.1,0,0.1,0.1,0.2,0.1c0,0,0,0,0,0c0,0,0.1,0.1,0.1,0.1
			c0,0,0,0,0.1,0c0,0,0.1,0,0.1,0.1c0,0,0,0,0.1,0c0,0,0.1,0,0.1,0.1c0,0,0,0,0.1,0c0.1,0,0.1,0,0.2,0.1c0,0,0,0,0,0
			c0.1,0,0.1,0.1,0.2,0.1c0,0,0,0,0.1,0c0,0,0.1,0,0.1,0.1c0,0,0.1,0,0.1,0c0,0,0.1,0,0.1,0c0,0,0.1,0,0.1,0
			c0.4,0.2,0.9,0.3,1.3,0.4c1.9,0.5,5.2,1.3,5.9-1.6c0.2-1,1.2-1.5,2.1-1.3c0,0,0,0,0,0c0.1,0,0.2,0.1,0.3,0.1
			c0.2,0.1,0.4,0.2,0.6,0.4C35.9,8.4,36,8.5,36,8.6c0.3,0.4,0.4,0.9,0.2,1.4c0,0.1,0,0.1-0.1,0.2c0,0,0,0,0,0.1c0,0,0,0.1-0.1,0.1
			c0,0,0,0,0,0h0c-0.4,0.7-1.2,1.1-2,0.9c-2.8-0.7-3.9,2.2-4.4,4.2c-0.4,1.7-2,2.9-3.8,2.9C25.7,18.4,25.4,18.3,25.1,18.3z
			 M25.1,17.5L25.1,17.5C25.1,17.5,25.1,17.5,25.1,17.5L25.1,17.5z"/>
		
			<linearGradient id="Union_8_1_" gradientUnits="userSpaceOnUse" x1="-223.116" y1="419.9379" x2="-223.1264" y2="419.8904" gradientTransform="matrix(280.9197 0 0 -242.26 62694.3555 101754.6484)">
			<stop  offset="0" style="stop-color:#2852E1"/>
			<stop  offset="1" style="stop-color:#1B6AF3"/>
		</linearGradient>
		<path id="Union_8" class="st6" d="M20.2,36c-1.4-0.3-2.2-1.7-1.9-3.1c0,0,0,0,0,0c0.9-3.5-1.7-4.7-4.3-5.4
			c-1.4-0.3-5.1-1.7-5.9,1.6c-0.2,1-1.2,1.5-2.1,1.3c-1-0.2-1.5-1.2-1.3-2.1c0.2-1,1.2-1.5,2.1-1.3c0,0,0,0,0,0
			c3.3,0.8,4-2.5,4.4-4.2c0.5-2.1,2.6-3.3,4.7-2.8c2.1,0.5,3.3,2.6,2.8,4.7c-0.6,2.6-0.8,5.5,2.7,6.4c1.4,0.3,2.2,1.7,1.9,3.1
			C23,35.5,21.6,36.3,20.2,36C20.2,36,20.2,36,20.2,36L20.2,36z"/>
		<path id="Path_559" class="st0" d="M25.5,26.6c-0.3,0-0.5,0-0.8-0.1c-0.2-0.1-0.4-0.2-0.6-0.3l0.2-0.4c0.2,0.1,0.3,0.2,0.5,0.3
			c0.2,0.1,0.4,0.1,0.7,0.1c0.3,0,0.5-0.1,0.7-0.2c0.1-0.1,0.2-0.2,0.2-0.4c0-0.1,0-0.2-0.1-0.3c-0.1-0.1-0.2-0.1-0.3-0.2
			c-0.1,0-0.3-0.1-0.5-0.1c-0.2-0.1-0.4-0.1-0.7-0.2c-0.2-0.1-0.3-0.2-0.4-0.3c-0.1-0.2-0.2-0.4-0.2-0.6c0-0.2,0.1-0.4,0.2-0.5
			c0.1-0.2,0.3-0.3,0.5-0.4c0.2-0.1,0.5-0.1,0.8-0.1c0.2,0,0.4,0,0.6,0.1c0.2,0,0.4,0.1,0.5,0.2l-0.2,0.4c-0.2-0.1-0.3-0.2-0.5-0.2
			c-0.2,0-0.3-0.1-0.5-0.1c-0.3,0-0.5,0.1-0.7,0.2c-0.1,0.1-0.2,0.2-0.2,0.4c0,0.1,0,0.2,0.1,0.3c0.1,0.1,0.2,0.1,0.3,0.2
			c0.2,0.1,0.3,0.1,0.5,0.1c0.2,0.1,0.4,0.1,0.7,0.2c0.2,0.1,0.3,0.2,0.4,0.3c0.1,0.2,0.2,0.3,0.2,0.5c0,0.2-0.1,0.4-0.2,0.5
			c-0.1,0.2-0.3,0.3-0.5,0.4C26,26.5,25.8,26.6,25.5,26.6z"/>
		<path id="Path_560" class="st0" d="M15.2,25.6c-0.3,0-0.7-0.1-1-0.2c-0.3-0.2-0.5-0.4-0.7-0.7c-0.2-0.3-0.3-0.6-0.3-1
			c0-0.3,0.1-0.7,0.3-1c0.2-0.3,0.4-0.5,0.7-0.7c0.3-0.2,0.6-0.2,1-0.2c0.3,0,0.5,0,0.8,0.1c0.2,0.1,0.4,0.2,0.6,0.4l-0.3,0.3
			c-0.3-0.3-0.6-0.4-1-0.4c-0.3,0-0.5,0.1-0.7,0.2c-0.2,0.1-0.4,0.3-0.5,0.5c-0.1,0.2-0.2,0.5-0.2,0.7c0,0.3,0.1,0.5,0.2,0.7
			c0.1,0.2,0.3,0.4,0.5,0.5c0.2,0.1,0.5,0.2,0.7,0.2c0.4,0,0.8-0.2,1-0.4l0.3,0.3c-0.2,0.2-0.4,0.3-0.6,0.4
			C15.8,25.5,15.5,25.6,15.2,25.6z"/>
		<path id="Path_561" class="st0" d="M25.9,13.1v1.3h1.8v0.4h-1.8v1.5h-0.5v-3.7h2.6v0.5H25.9z"/>
		<path id="Path_558" class="st0" d="M17.5,11.9v3.7h-0.4l-2.2-2.7v2.7h-0.5v-3.7h0.4l2.2,2.7v-2.7H17.5z"/>
	</g>
</g>
</svg>
